<svg xmlns="http://www.w3.org/2000/svg" data-asc=".881" viewBox="0 4.95 474.39999 51.05"  >
    <path d="M15.65 44.05q-.9 0-1.52-.63-.63-.62-.63-1.52V5h4.3v36.9q0 .9-.6 1.52-.6.63-1.55.63M2 8.95q-.9 0-1.45-.58Q0 7.8 0 7q0-.9.55-1.45Q1.1 5 2 5h27.35q.9 0 1.45.55.55.55.55 1.45 0 .8-.55 1.37-.55.58-1.45.58H2ZM31.45 27.1q.1-3.05 1.58-5.48 1.47-2.42 3.9-3.82 2.42-1.4 5.32-1.4 2.55 0 3.88.75 1.32.75.97 2.05-.15.7-.62 1-.48.3-1.1.3-.63 0-1.43-.1-2.95-.35-5.22.37-2.28.73-3.63 2.38t-1.35 3.95h-2.3m.25 16.95q-1 0-1.55-.55t-.55-1.55V18.8q0-1 .55-1.55t1.55-.55q1 0 1.53.55.52.55.52 1.55v23.15q0 1-.52 1.55-.53.55-1.53.55ZM57.7 56q-.4 0-1-.25-1.85-.85-1-2.65l15.85-35.25q.85-1.75 2.65-.95 1.85.75 1.05 2.6L59.3 54.7q-.5 1.3-1.6 1.3m5.65-12.9q-.8.4-1.5.15t-1.15-1.1L49.5 19.5q-.4-.85-.12-1.55.27-.7 1.07-1.1.85-.35 1.55-.1.7.25 1.1 1.05l10.95 22.7q.4.8.28 1.52-.13.73-.98 1.08Zm44.05 1.2q-4.1 0-7.25-1.78Q97 40.75 95.2 37.6q-1.8-3.15-1.8-7.2 0-4.1 1.7-7.23 1.7-3.12 4.68-4.92 2.97-1.8 6.87-1.8 3.8 0 6.63 1.72 2.82 1.73 4.35 4.78 1.52 3.05 1.52 6.95 0 .85-.55 1.37-.55.53-1.4.53H96.3v-3.45h21.15l-2.15 1.5q.05-2.75-1-4.95t-3-3.45q-1.95-1.25-4.65-1.25-2.85 0-4.97 1.3-2.13 1.3-3.25 3.62-1.13 2.33-1.13 5.28t1.3 5.25q1.3 2.3 3.58 3.6 2.27 1.3 5.22 1.3 1.7 0 3.48-.6 1.77-.6 2.82-1.5.6-.45 1.38-.48.77-.02 1.27.43.75.65.78 1.4.02.75-.68 1.3-1.65 1.4-4.2 2.3-2.55.9-4.85.9Zm35.9-.25q-.6 0-1-.17-.4-.18-.8-.68l-8.65-10.85-1.6-1.45-8.7-10.85q-.6-.7-.6-1.45t.5-1.33q.5-.57 1.4-.57.95 0 1.6.7l8.45 10.55 1.3 1.15 9.35 11.7q.7.8.63 1.58-.08.77-.65 1.22-.58.45-1.23.45m-19.6 0q-.85 0-1.37-.55-.53-.55-.53-1.3t.6-1.5l8.95-11.2 2.35 3.15-8.5 10.75q-.55.65-1.5.65m11.9-12.95-2.75-2.65 8.45-10.85q.35-.5.8-.7.45-.2.9-.2.95 0 1.43.57.47.58.45 1.38-.03.8-.58 1.5l-8.7 10.95Zm18.25 24.65q-1 0-1.57-.58-.58-.57-.58-1.57V30.25q.05-3.9 1.88-7.03 1.82-3.12 4.92-4.95 3.1-1.82 7-1.82 4 0 7.13 1.82 3.12 1.83 4.95 4.98 1.82 3.15 1.82 7.15 0 3.95-1.72 7.1-1.73 3.15-4.73 4.97-3 1.83-6.8 1.83-3.25 0-5.9-1.38-2.65-1.37-4.3-3.62v14.3q0 1-.6 1.57-.6.58-1.5.58M165.5 40.5q2.8 0 5.03-1.33 2.22-1.32 3.5-3.62 1.27-2.3 1.27-5.15 0-2.9-1.27-5.18-1.28-2.27-3.5-3.62-2.23-1.35-5.03-1.35-2.7 0-4.92 1.35-2.23 1.35-3.48 3.62-1.25 2.28-1.25 5.18 0 2.85 1.25 5.15 1.25 2.3 3.45 3.62 2.2 1.33 4.95 1.33Zm34.05 3.8q-4.1 0-7.25-1.78-3.15-1.77-4.95-4.92-1.8-3.15-1.8-7.2 0-4.1 1.7-7.23 1.7-3.12 4.68-4.92 2.97-1.8 6.87-1.8 3.8 0 6.63 1.72 2.82 1.73 4.35 4.78 1.52 3.05 1.52 6.95 0 .85-.55 1.37-.55.53-1.4.53h-20.9v-3.45h21.15l-2.15 1.5q.05-2.75-1-4.95t-3-3.45q-1.95-1.25-4.65-1.25-2.85 0-4.97 1.3-2.13 1.3-3.25 3.62-1.13 2.33-1.13 5.28t1.3 5.25q1.3 2.3 3.58 3.6 2.27 1.3 5.22 1.3 1.7 0 3.48-.6 1.77-.6 2.82-1.5.6-.45 1.38-.48.77-.02 1.27.43.75.65.78 1.4.02.75-.68 1.3-1.65 1.4-4.2 2.3-2.55.9-4.85.9Zm20.1-17.2q.1-3.05 1.58-5.48 1.47-2.42 3.9-3.82 2.42-1.4 5.32-1.4 2.55 0 3.88.75 1.32.75.97 2.05-.15.7-.62 1-.48.3-1.1.3-.63 0-1.43-.1-2.95-.35-5.22.37-2.28.73-3.63 2.38t-1.35 3.95h-2.3m.25 16.95q-1 0-1.55-.55t-.55-1.55V18.8q0-1 .55-1.55t1.55-.55q1 0 1.53.55.52.55.52 1.55v23.15q0 1-.52 1.55-.53.55-1.53.55Zm24.1 0q-.95 0-1.55-.58-.6-.57-.6-1.57V18.85q0-1 .6-1.58.6-.57 1.55-.57.95 0 1.53.57.57.58.57 1.58V41.9q0 1-.57 1.57-.58.58-1.53.58m-.05-32.3q-1.2 0-2.05-.88-.85-.87-.85-2.07 0-1.25.88-2.05.87-.8 2.02-.8t2.03.8q.87.8.87 2.05 0 1.2-.85 2.07-.85.88-2.05.88Zm48.5 32.3q-.95 0-1.55-.58-.6-.57-.6-1.52V27.6q0-3.45-1.75-5.35-1.75-1.9-4.55-1.9-2.95 0-4.82 2-1.88 2-1.88 5.25h-3.65q.05-3.35 1.45-5.88 1.4-2.52 3.88-3.92 2.47-1.4 5.62-1.4 2.9 0 5.15 1.35 2.25 1.35 3.53 3.87 1.27 2.53 1.27 5.98v14.35q0 .95-.6 1.52-.6.58-1.5.58m-34.5 0q-1 0-1.57-.58-.58-.57-.58-1.52v-23.1q0-.95.58-1.55.57-.6 1.57-.6.95 0 1.53.6.57.6.57 1.55v23.1q0 .95-.57 1.52-.58.58-1.53.58m17.25 0q-.9 0-1.5-.58-.6-.57-.6-1.52V27.6q0-3.45-1.77-5.35-1.78-1.9-4.53-1.9-2.95 0-4.85 1.95-1.9 1.95-1.9 5.1h-2.9q.1-3.25 1.4-5.73 1.3-2.47 3.6-3.87t5.25-1.4q2.9 0 5.15 1.35 2.25 1.35 3.5 3.87 1.25 2.53 1.25 5.98v14.35q0 .95-.57 1.52-.58.58-1.53.58Zm40.35.25q-4.1 0-7.25-1.78-3.15-1.77-4.95-4.92-1.8-3.15-1.8-7.2 0-4.1 1.7-7.23 1.7-3.12 4.68-4.92 2.97-1.8 6.87-1.8 3.8 0 6.63 1.72 2.82 1.73 4.35 4.78 1.52 3.05 1.52 6.95 0 .85-.55 1.37-.55.53-1.4.53h-20.9v-3.45h21.15l-2.15 1.5q.05-2.75-1-4.95t-3-3.45q-1.95-1.25-4.65-1.25-2.85 0-4.97 1.3-2.13 1.3-3.25 3.62-1.13 2.33-1.13 5.28t1.3 5.25q1.3 2.3 3.58 3.6 2.27 1.3 5.22 1.3 1.7 0 3.48-.6 1.77-.6 2.82-1.5.6-.45 1.38-.48.77-.02 1.27.43.75.65.78 1.4.02.75-.68 1.3-1.65 1.4-4.2 2.3-2.55.9-4.85.9Zm41.6-.25q-.95 0-1.55-.6-.6-.6-.6-1.5V29.2q0-3.05-1.12-4.98-1.13-1.92-3.08-2.9-1.95-.97-4.45-.97-2.35 0-4.22.92-1.88.93-2.98 2.5-1.1 1.58-1.1 3.63h-2.9q.1-3.15 1.68-5.63 1.57-2.47 4.22-3.92 2.65-1.45 5.9-1.45 3.5 0 6.28 1.47 2.77 1.48 4.4 4.33 1.62 2.85 1.62 7v12.75q0 .9-.6 1.5t-1.5.6m-21.2 0q-1 0-1.57-.58-.58-.57-.58-1.52v-23.1q0-1 .58-1.58.57-.57 1.57-.57.95 0 1.53.57.57.58.57 1.58v23.1q0 .95-.57 1.52-.58.58-1.53.58Zm42.25 0q-2.6 0-4.65-1.25-2.05-1.25-3.22-3.45-1.18-2.2-1.18-4.95V10.1q0-.9.58-1.5.57-.6 1.52-.6.9 0 1.5.6t.6 1.5v24.3q0 2.35 1.38 3.9 1.37 1.55 3.47 1.55h1.5q.8 0 1.35.6t.55 1.5q0 .95-.67 1.52-.68.58-1.73.58h-1m-12-22.7q-.85 0-1.4-.53-.55-.52-.55-1.27 0-.8.55-1.33.55-.52 1.4-.52h12.35q.85 0 1.4.52.55.53.55 1.33 0 .75-.55 1.27-.55.53-1.4.53H366.2Zm24.5 22.7q-.95 0-1.55-.58-.6-.57-.6-1.57V18.85q0-1 .6-1.58.6-.57 1.55-.57.95 0 1.53.57.57.58.57 1.58V41.9q0 1-.57 1.57-.58.58-1.53.58m-.05-32.3q-1.2 0-2.05-.88-.85-.87-.85-2.07 0-1.25.88-2.05.87-.8 2.02-.8t2.03.8q.87.8.87 2.05 0 1.2-.85 2.07-.85.88-2.05.88Zm35.2 32.3q-.95 0-1.55-.6-.6-.6-.6-1.5V29.2q0-3.05-1.12-4.98-1.13-1.92-3.08-2.9-1.95-.97-4.45-.97-2.35 0-4.22.92-1.88.93-2.98 2.5-1.1 1.58-1.1 3.63h-2.9q.1-3.15 1.68-5.63 1.57-2.47 4.22-3.92 2.65-1.45 5.9-1.45 3.5 0 6.28 1.47 2.77 1.48 4.4 4.33 1.62 2.85 1.62 7v12.75q0 .9-.6 1.5t-1.5.6m-21.2 0q-1 0-1.57-.58-.58-.57-.58-1.52v-23.1q0-1 .58-1.58.57-.57 1.57-.57.95 0 1.53.57.57.58.57 1.58v23.1q0 .95-.57 1.52-.58.58-1.53.58Zm43.65.25q-3.9 0-6.9-1.78-3-1.77-4.7-4.92-1.7-3.15-1.7-7.2 0-4.1 1.8-7.25 1.8-3.15 4.93-4.93 3.12-1.77 7.17-1.77 4 0 7.13 1.77 3.12 1.78 4.9 4.93 1.77 3.15 1.82 7.25l-2.5.85q0 3.8-1.52 6.75-1.53 2.95-4.23 4.63-2.7 1.67-6.2 1.67m.6 10.7q-3.8 0-6.82-1.45-3.03-1.45-5.08-4.05-.55-.65-.45-1.43.1-.77.8-1.22.75-.5 1.6-.35.85.15 1.35.85 1.4 1.75 3.6 2.8 2.2 1.05 5.1 1.05 2.65 0 4.85-1.28 2.2-1.27 3.48-3.67 1.27-2.4 1.27-5.7v-7.4l1.5-3.4 2.65.65v10.4q0 4-1.8 7.22-1.8 3.23-4.9 5.11-3.1 1.87-7.15 1.87m0-14.5q2.85 0 5.03-1.3 2.17-1.3 3.42-3.57 1.25-2.28 1.25-5.23 0-2.95-1.25-5.25t-3.42-3.6q-2.18-1.3-5.03-1.3t-5.05 1.3q-2.2 1.3-3.47 3.6-1.28 2.3-1.28 5.25t1.28 5.23q1.27 2.27 3.47 3.57 2.2 1.3 5.05 1.3Zm22.4-5.4q-.85 0-1.47-.65-.63-.65-.63-1.5V7.15q0-.95.63-1.58.62-.62 1.47-.62.95 0 1.55.62.6.63.6 1.58v25.8q0 .85-.65 1.5t-1.5.65m0 8.95q-1.25 0-2.15-.9-.9-.9-.9-2.15 0-1.35.9-2.25.9-.9 2.15-.9 1.3 0 2.2.92.9.93.9 2.23 0 1.25-.9 2.15-.9.9-2.2.9Z"/>
</svg>
